<?xml version="1.0" encoding="iso-8859-1"?>
<!-- Uploaded to: SVG Repo, www.svgrepo.com, Generator: SVG Repo Mixer Tools -->
<svg version="1.1" id="Layer_1" xmlns="http://www.w3.org/2000/svg" xmlns:xlink="http://www.w3.org/1999/xlink" 
	 viewBox="0 0 511.992 511.992" xml:space="preserve">
<path style="fill:#967ADC;" d="M334.276,72.234c0,0-157.498-0.062-157.029,102.123c0.312,71.046,157.498,0.609,157.498,0.609
	L334.276,72.234z"/>
<path style="fill:#AC92EB;" d="M351.994,119.764H159.998c-35.344,0-63.999,28.656-63.999,63.999
	c0,35.358,28.655,63.999,63.999,63.999h191.996c35.344,0,64-28.641,64-63.999C415.994,148.42,387.338,119.764,351.994,119.764z"/>
<rect x="42.656" y="183.766" style="fill:#E6E9ED;" width="426.66" height="130"/>
<g>
	<path style="fill:#CCD1D9;" d="M458.648,194.435c0,5.89,4.781,10.671,10.672,10.671v-21.343
		C463.43,183.763,458.648,188.544,458.648,194.435z"/>
	<path style="fill:#CCD1D9;" d="M53.327,194.435c0-5.891-4.781-10.672-10.671-10.672v21.343
		C48.546,205.106,53.327,200.325,53.327,194.435z"/>
	<path style="fill:#CCD1D9;" d="M53.327,215.762c0-5.89-4.781-10.656-10.671-10.656v21.328
		C48.546,226.434,53.327,221.653,53.327,215.762z"/>
	<path style="fill:#CCD1D9;" d="M458.648,215.762c0,5.891,4.781,10.672,10.672,10.672v-21.328
		C463.43,205.106,458.648,209.872,458.648,215.762z"/>
</g>
<path style="fill:#4FC2E9;" d="M511.992,375.76c0,35.344-28.656,63.998-63.999,63.998H63.999C28.656,439.758,0,411.104,0,375.76
	V226.434h511.992V375.76z"/>
<path style="fill:#3BAFDA;" d="M85.327,375.76c-0.047,0-0.094,0.016-0.141,0.016v-0.016c-11.703-0.078-21.188-9.609-21.188-21.328
	v-74.67c0-5.891-4.781-10.656-10.672-10.656s-10.671,4.766-10.671,10.656v74.67c0,23.516,19.03,42.578,42.53,42.656l0,0
	c0.047,0,0.094,0.016,0.141,0.016c5.891,0,10.672-4.781,10.672-10.672S91.218,375.76,85.327,375.76z"/>
</svg>