<?xml version="1.0" encoding="iso-8859-1"?>
<!-- Uploaded to: SVG Repo, www.svgrepo.com, Generator: SVG Repo Mixer Tools -->
<svg height="800px" width="800px" version="1.1" id="Layer_1" xmlns="http://www.w3.org/2000/svg" xmlns:xlink="http://www.w3.org/1999/xlink" 
	 viewBox="0 0 512.002 512.002" xml:space="preserve">
<path style="fill:#007AB3;" d="M14.703,487.473c-19.591-19.568-19.615-51.317,0-70.909l20.85-20.85
	c6.529-6.529,17.107-6.529,23.636,0l47.284,47.273c3.135,3.135,4.898,7.389,4.898,11.818c0,4.44-1.763,8.684-4.898,11.818
	l-20.862,20.85C66.044,507.064,34.295,507.088,14.703,487.473z"/>
<path style="fill:#005E80;" d="M85.612,487.473l20.862-20.85c3.135-3.135,4.898-7.378,4.898-11.818c0-4.43-1.763-8.684-4.898-11.818
	l-23.639-23.633L14.709,487.48C34.3,507.085,66.046,507.062,85.612,487.473z"/>
<path style="fill:#007AB3;" d="M454.804,111.37c-4.43,0-8.684-1.763-11.818-4.898l-47.273-47.284
	c-6.529-6.529-6.529-17.107,0-23.636l20.85-20.85c19.58-19.602,51.317-19.604,70.92,0c19.578,19.578,19.604,51.317-0.011,70.909
	l-20.852,20.863C463.488,109.608,459.244,111.37,454.804,111.37z"/>
<path style="fill:#005E80;" d="M442.985,106.474c3.135,3.135,7.389,4.898,11.818,4.898c4.44,0,8.684-1.763,11.818-4.898
	l20.85-20.862c19.616-19.592,19.588-51.331,0.011-70.909l-68.131,68.131L442.985,106.474z"/>
<path style="fill:#FFAA00;" d="M176.718,512.002c-31.286,0-60.668-12.166-82.738-34.236L35.553,419.35
	c-45.608-45.619-45.608-119.858,0-165.476l218.32-218.32c45.619-45.619,119.858-45.619,165.476,0l58.416,58.427
	c22.07,22.07,34.236,51.451,34.236,82.738c0,31.275-12.166,60.658-34.236,82.727l-44.487,44.498l0,0
	c-22.168,22.156-51.908,34.225-82.64,34.225c-0.446,0-0.893,0-1.327,0c0.349,31.211-11.742,61.474-34.225,83.968l-55.641,55.63
	C237.377,499.835,207.994,512.002,176.718,512.002z"/>
<path style="fill:#F28D00;" d="M315.087,422.135c22.483-22.494,34.573-52.758,34.225-83.968c0.436,0,0.881,0,1.327,0
	c30.731,0,60.473-12.068,82.64-34.225l44.487-44.498c22.07-22.07,34.236-51.451,34.236-82.727c0-31.286-12.166-60.668-34.236-82.738
	l-34.776-34.783L59.197,442.988l34.783,34.776c22.07,22.07,51.451,34.236,82.738,34.236c31.275,0,60.658-12.166,82.727-34.236
	L315.087,422.135z"/>
<path style="fill:#FFFFFF;" d="M176.718,478.572c-22.353,0-43.333-8.684-59.101-24.442L59.19,395.713
	c-32.571-32.592-32.571-85.611,0-118.203L277.51,59.19c15.747-15.747,36.739-24.42,59.102-24.42c22.363,0,43.355,8.673,59.101,24.42
	l58.416,58.427c15.758,15.768,24.442,36.75,24.442,59.101c0,22.341-8.684,43.322-24.442,59.09l-44.487,44.498
	c-15.768,15.747-36.717,24.431-59.003,24.431h-35.128l0.37,33.8c0.251,22.646-8.423,43.943-24.442,59.962l-55.63,55.63
	C220.041,469.887,199.06,478.572,176.718,478.572z"/>
<path style="fill:#E6F3FF;" d="M291.439,398.499c16.019-16.019,24.692-37.315,24.442-59.962l-0.37-33.8h35.128
	c22.287,0,43.235-8.684,59.003-24.431l44.487-44.498c15.758-15.768,24.442-36.75,24.442-59.09c0-22.353-8.684-43.334-24.442-59.101
	l-34.776-34.783L82.834,419.353l34.783,34.776c15.768,15.758,36.75,24.442,59.101,24.442c22.341,0,43.322-8.684,59.09-24.442
	L291.439,398.499z"/>
<path style="fill:#CCF7FF;" d="M141.253,430.504l-58.416-58.437c-19.509-19.485-19.587-51.322,0-70.909l218.32-218.32
	c19.547-19.547,51.359-19.549,70.909,0l58.427,58.416c19.544,19.556,19.544,51.365,0.011,70.92l-44.508,44.487
	c-19.592,19.615-51.328,19.591-70.92,0c-6.519-6.54-17.117-6.497-23.636,0l-23.636,23.636c-6.504,6.504-6.558,17.09,0,23.647
	c19.615,19.592,19.591,51.328,0,70.92l-55.631,55.628C192.676,449.991,160.874,450.081,141.253,430.504z"/>
<path style="fill:#B3E6FF;" d="M267.803,303.944c-6.557-6.557-6.504-17.144,0-23.648l23.636-23.636
	c6.519-6.497,17.117-6.54,23.636,0c19.592,19.591,51.328,19.615,70.92,0l44.508-44.487c19.533-19.556,19.533-51.365-0.011-70.92
	l-34.782-34.775L106.475,395.712l34.779,34.792c19.62,19.577,51.423,19.487,70.92-0.011l55.63-55.63
	C287.395,355.272,287.419,323.536,267.803,303.944z"/>
<path style="fill:#FFFFFF;" d="M361.967,155.814H306.25c-9.228,0-16.715-7.487-16.715-16.715c0-9.228,7.487-16.715,16.715-16.715
	h55.717c9.228,0,16.715,7.487,16.715,16.715C378.682,148.327,371.195,155.814,361.967,155.814z"/>
<path style="fill:#E6F3FF;" d="M361.967,155.814c9.228,0,16.715-7.487,16.715-16.715c0-4.328-1.689-8.235-4.389-11.204
	l-27.92,27.919H361.967z"/>
</svg>