<?xml version="1.0" encoding="iso-8859-1"?>
<!-- Uploaded to: SVG Repo, www.svgrepo.com, Generator: SVG Repo Mixer Tools -->
<svg height="800px" width="800px" version="1.1" id="Layer_1" xmlns="http://www.w3.org/2000/svg" xmlns:xlink="http://www.w3.org/1999/xlink" 
	 viewBox="0 0 511.98 511.98" xml:space="preserve">
<path style="fill:#AC92EA;" d="M437.312,298.641c0,0,10.67-191.986-181.322-191.986c-191.993,0-181.337,191.986-181.337,191.986
	L0,383.981c0,0,70.919,21.344,255.99,21.344s255.99-21.344,255.99-21.344L437.312,298.641z"/>
<path style="fill:#967ADA;" d="M437.312,298.641c0,0-74.67,21.343-181.322,21.343c-106.667,0-181.337-21.343-181.337-21.343
	L0,383.981c0,0,70.919,21.344,255.99,21.344s255.99-21.344,255.99-21.344L437.312,298.641z"/>
<path style="fill:#D670AC;" d="M373.313,330.639c-11.765,0-21.326-9.562-21.326-21.312c0-11.78,9.562-21.343,21.326-21.343
	c11.766,0,21.328,9.562,21.328,21.343C394.641,321.078,385.079,330.639,373.313,330.639z"/>
<path style="fill:#EB87BF;" d="M373.313,277.33c-17.671,0-31.998,14.312-31.998,31.998c0,17.655,14.327,31.999,31.998,31.999
	c17.672,0,32-14.344,32-31.999C405.313,291.641,390.985,277.33,373.313,277.33z M373.313,319.984
	c-5.874,0-10.671-4.781-10.671-10.656c0-5.891,4.797-10.687,10.671-10.687c5.891,0,10.672,4.796,10.672,10.687
	C383.985,315.203,379.204,319.984,373.313,319.984z"/>
<g style="opacity:0.2;">
	<path style="fill:#FFFFFF;" d="M18.874,388.309l77.122-89.668c0,0-10.265-184.783,170.65-191.775
		c-3.484-0.133-7.031-0.211-10.656-0.211c-191.993,0-181.337,191.986-181.337,191.986L0,383.981L18.874,388.309z"/>
</g>
</svg>