<?xml version="1.0" encoding="iso-8859-1"?>
<!-- Uploaded to: SVG Repo, www.svgrepo.com, Generator: SVG Repo Mixer Tools -->
<svg height="800px" width="800px" version="1.1" id="Layer_1" xmlns="http://www.w3.org/2000/svg" xmlns:xlink="http://www.w3.org/1999/xlink" 
	 viewBox="0 0 512 512" xml:space="preserve">
<path style="fill:#D5DCED;" d="M391.565,317.793l-3.151,70.621l116.35-16V345.31C493.005,305.858,435.703,317.793,391.565,317.793z"
	/>
<path style="fill:#FF507D;" d="M163.092,90.553c-2.703-6.706-9.162-11.105-16.394-11.105H35.224c-4.842,0-8.736,3.891-8.824,8.732
	C25.098,159.935,8.828,286.722,8.828,388.414l382.738-8.828v-61.793C245.924,272.65,179.527,131.313,163.092,90.553z"/>
<path style="fill:#FF6991;" d="M163.092,90.553c-2.703-6.706-9.162-11.105-16.394-11.105h-34.193
	c43.288,128.168,140.863,231.298,277.839,285.241l1.22,1.345v-48.242C245.924,272.65,179.527,131.313,163.092,90.553z"/>
<g>
	<path style="fill:#E4EAF8;" d="M155.034,123.591c-3.569,0-6.931-2.185-8.258-5.725c-1.725-4.561,0.586-9.651,5.146-11.371
		l16.242-6.112c4.561-1.716,9.655,0.59,11.371,5.155c1.725,4.561-0.586,9.651-5.146,11.371l-16.242,6.112
		C157.121,123.405,156.07,123.591,155.034,123.591z"/>
	<path style="fill:#E4EAF8;" d="M201.216,205.044c-3.319,0-6.5-1.879-8-5.078c-2.069-4.414-0.172-9.673,4.242-11.742l17.802-8.345
		c4.439-2.078,9.681-0.163,11.742,4.242c2.069,4.414,0.172,9.673-4.242,11.742l-17.802,8.345
		C203.742,204.776,202.465,205.044,201.216,205.044z"/>
	<path style="fill:#E4EAF8;" d="M177.164,166.587c-3.353,0-6.56-1.922-8.043-5.164c-2.017-4.436-0.07-9.673,4.371-11.699
		l16.569-7.564c4.448-2.035,9.673-0.07,11.699,4.362c2.017,4.436,0.07,9.673-4.371,11.699l-16.569,7.564
		C179.629,166.328,178.388,166.587,177.164,166.587z"/>
	<path style="fill:#E4EAF8;" d="M232.776,241.449c-2.517,0-5.009-1.069-6.759-3.138c-3.138-3.733-2.664-9.302,1.06-12.439
		l13.327-11.233c3.733-3.155,9.293-2.655,12.439,1.06c3.138,3.733,2.664,9.302-1.06,12.439l-13.327,11.233
		C236.802,240.768,234.784,241.449,232.776,241.449z"/>
	<path style="fill:#E4EAF8;" d="M264.38,274.793c-2.259,0-4.518-0.862-6.241-2.586c-3.448-3.448-3.448-9.035,0-12.483l13.302-13.302
		c3.448-3.448,9.035-3.448,12.483,0s3.448,9.035,0,12.483l-13.302,13.302C268.897,273.931,266.638,274.793,264.38,274.793z"/>
	<path style="fill:#E4EAF8;" d="M301.379,302.001c-1.897,0-3.81-0.612-5.422-1.87c-3.844-3-4.526-8.552-1.526-12.388l10.741-13.75
		c2.991-3.844,8.543-4.534,12.388-1.526c3.844,3,4.526,8.552,1.526,12.388l-10.741,13.75
		C306.603,300.836,304.009,302.001,301.379,302.001z"/>
	<path style="fill:#E4EAF8;" d="M340.163,325.879c-1.5,0-3.017-0.38-4.405-1.181c-4.224-2.44-5.673-7.837-3.233-12.061l9.25-16.018
		c2.44-4.233,7.844-5.681,12.061-3.233c4.224,2.44,5.673,7.837,3.233,12.061l-9.25,16.018
		C346.182,324.302,343.215,325.879,340.163,325.879z"/>
</g>
<circle style="fill:#FFDC64;" cx="105.931" cy="256" r="52.966"/>
<circle style="fill:#FFC850;" cx="105.931" cy="256" r="35.31"/>
<path style="fill:#D23C69;" d="M205.302,352.051L10.055,336.142c-0.75,17.858-1.227,35.426-1.227,52.271l238.345-6.368
	l-19.769-19.769C221.482,356.354,213.649,352.73,205.302,352.051z"/>
<path style="fill:#E4EAF8;" d="M511.651,379.734l-6.887-34.424c-0.858,0.173-81.29,34.276-148.51,34.276H8.828
	c-4.875,0-8.828,3.953-8.828,8.828v26.483c0,9.75,7.905,17.655,17.655,17.655h338.6c53.386,0,112.406-26.849,141.22-31.977
	C507.228,398.839,513.593,389.447,511.651,379.734z"/>
</svg>